<svg id="Capa_1" enable-background="new 0 0 512.025 512.025" height="512" viewBox="0 0 512.025 512.025" width="512" xmlns="http://www.w3.org/2000/svg"><g><path d="m448.303 446.811h-8.625v-21.89c0-10.688-8.695-19.383-19.383-19.383h-36.65l-10.116-27.221c-1.771-4.764-5.335-8.536-9.747-10.671l25.746-177.237c.596-4.099-2.244-7.905-6.344-8.5-4.1-.599-7.905 2.244-8.5 6.344l-23.796 163.813-15.813-22.863c-2.354-3.406-7.026-4.26-10.435-1.902-3.406 2.356-4.258 7.028-1.901 10.435l19.349 27.976h-31.941l-6.668-38.877 30.365-29.599c3.331-3.247 4.507-8.012 3.07-12.436-1.438-4.424-5.19-7.588-9.794-8.257l-41.963-6.098-18.768-38.026c-2.06-4.171-6.228-6.762-10.879-6.762s-8.819 2.591-10.879 6.763l-11.954 24.222c-1.833 3.714-.308 8.212 3.406 10.045 3.717 1.835 8.212.308 10.045-3.406l9.382-19.01 16.86 34.162c1.767 3.583 5.182 6.065 9.137 6.64l37.704 5.479-27.285 26.596c-2.857 2.787-4.161 6.798-3.487 10.737l5.773 33.662-31.319-24.016c-4.348-3.334-10.419-3.333-14.765 0l-31.32 24.016 5.774-33.666c.673-3.934-.631-7.946-3.489-10.734l-27.284-26.595 23.539-3.42c4.1-.595 6.939-4.401 6.344-8.5-.596-4.1-4.412-6.94-8.5-6.343l-29.292 4.256c-4.603.669-8.355 3.833-9.793 8.257-1.437 4.424-.261 9.189 3.07 12.436l30.365 29.599-6.668 38.877h-30.939l18.946-27.394c2.355-3.407 1.504-8.079-1.903-10.435-3.406-2.356-8.078-1.505-10.435 1.902l-15.408 22.279-34.762-239.295 31.061-14.046 77.373 111.874c1.455 2.105 3.795 3.234 6.175 3.234 1.471 0 2.958-.432 4.26-1.332 3.406-2.356 4.258-7.028 1.901-10.435l-77.075-111.448c1.032-1.364 1.878-2.881 2.498-4.526 1.698-4.501 1.542-9.394-.44-13.777l-25.917-57.315h14.249c4.143 0 7.5-3.358 7.5-7.5s-3.357-7.5-7.5-7.5h-117.419c-4.143 0-7.5 3.358-7.5 7.5s3.357 7.5 7.5 7.5h13.166l16.502 36.494-12.413 5.613c-3.528 1.595-6.224 4.469-7.591 8.092-1.366 3.623-1.239 7.56.355 11.087l5.82 12.874c2.42 5.351 7.707 8.522 13.229 8.522 1.994 0 4.02-.413 5.951-1.287l12.413-5.613 6.928 15.322c1.982 4.383 5.553 7.732 10.054 9.43 1.409.532 2.857.867 4.315 1.036l36.412 250.654c-4.843 2.035-8.792 5.995-10.687 11.093l-10.116 27.221h-36.65c-10.688 0-19.383 8.695-19.383 19.383v21.89h-8.625c-10.099 0-18.314 8.216-18.314 18.314v28.586c0 10.098 8.216 18.314 18.314 18.314h385.582c10.099 0 18.314-8.216 18.314-18.314v-28.586c.003-10.099-8.213-18.314-18.312-18.314zm-192.791-96.04 19.483 14.939h-38.966zm-125.765-335.771 17.527 38.761-47.39 21.428-27.217-60.189zm-57.408 67.521-5.404-11.954 11.953-5.405 5.405 11.954zm33.726 6.336 47.389-21.428 5.004 11.067c.447.988.238 1.867.074 2.302-.165.436-.588 1.233-1.576 1.68l-41.904 18.949c-1.515.684-3.3.01-3.982-1.502zm45.491 294.686c.63-1.694 2.267-2.832 4.074-2.832h199.764c1.808 0 3.444 1.138 4.074 2.832l8.174 21.995h-224.26zm300.062 110.168c0 1.827-1.487 3.314-3.314 3.314h-385.583c-1.827 0-3.314-1.487-3.314-3.314v-28.586c0-1.828 1.487-3.314 3.314-3.314h39.438c4.143 0 7.5-3.358 7.5-7.5s-3.357-7.5-7.5-7.5h-15.813v-21.89c0-2.417 1.966-4.383 4.383-4.383h329.566c2.417 0 4.383 1.966 4.383 4.383v21.89h-290.555c-4.143 0-7.5 3.358-7.5 7.5s3.357 7.5 7.5 7.5h314.181c1.827 0 3.314 1.487 3.314 3.314z"/><path d="m468.986 0h-117.42c-4.143 0-7.5 3.358-7.5 7.5s3.357 7.5 7.5 7.5h14.249l-25.916 57.314c-1.982 4.384-2.139 9.276-.44 13.777.621 1.645 1.467 3.162 2.498 4.526l-77.329 111.81c-2.356 3.407-1.505 8.079 1.901 10.435 1.303.9 2.788 1.332 4.26 1.332 2.379 0 4.72-1.129 6.175-3.234l77.625-112.237 31.061 14.046-6.354 43.738c-.596 4.099 2.244 7.905 6.344 8.5.366.053.729.079 1.088.079 3.664 0 6.87-2.689 7.412-6.423l6.114-42.092c1.458-.169 2.907-.504 4.316-1.036 4.501-1.698 8.071-5.047 10.053-9.43l6.928-15.322 12.413 5.613c1.933.874 3.956 1.287 5.951 1.287 5.522 0 10.81-3.172 13.229-8.522l5.82-12.873c1.595-3.528 1.722-7.465.355-11.088s-4.063-6.497-7.591-8.092l-12.413-5.613 16.505-36.495h13.166c4.143 0 7.5-3.358 7.5-7.5s-3.357-7.5-7.5-7.5zm-68.03 99.925c-.446.987-1.244 1.411-1.68 1.575-.435.165-1.313.373-2.303-.074l-41.904-18.949c-.988-.447-1.411-1.244-1.576-1.68-.164-.436-.373-1.314.074-2.302l5.004-11.067 47.39 21.428zm44.135-29.359-5.404 11.954-11.954-5.406 5.405-11.954zm-32.95 4.623-47.389-21.428 17.526-38.761h57.079z"/><path d="m419.778 251.677 24.947 3.133c.571.071 1.139.106 1.701.106 6.463 0 12.124-4.626 13.276-11.145 2.708-15.32-2.346-28.379-14.615-37.767-2.896-2.216-6.489-3.14-10.109-2.604-3.598.533-6.88 2.532-9.004 5.485l-15.473 21.521c-2.808 3.904-3.336 8.867-1.414 13.274 1.923 4.408 5.92 7.398 10.691 7.997zm17.451-32.75c6.543 5.524 9.084 12.204 7.923 20.819l-20.995-2.637z"/><path d="m402.787 283.733c-2.762 3.573-3.419 8.214-1.758 12.413l7.979 20.178c1.963 4.968 6.717 8.026 11.783 8.026 1.35 0 2.722-.217 4.069-.673 13.104-4.437 21.129-13.962 23.205-27.547.518-3.389-.342-6.765-2.42-9.507-2.063-2.722-5.19-4.521-8.58-4.937l-22.707-2.782c-4.487-.549-8.808 1.255-11.571 4.829zm29.971 12.538c-1.486 5.933-4.928 9.944-10.644 12.409l-5.697-14.411z"/><path d="m86.05 208.884c-2.123-2.952-5.405-4.951-9.003-5.484-3.623-.537-7.212.388-10.11 2.605-12.269 9.388-17.322 22.447-14.614 37.767 1.152 6.52 6.813 11.145 13.276 11.145.563 0 1.131-.035 1.702-.107l24.946-3.133c4.771-.599 8.769-3.588 10.69-7.997 1.922-4.408 1.394-9.37-1.414-13.274h.001zm-19.177 30.862c-1.161-8.616 1.379-15.294 7.922-20.819l13.073 18.182z"/><path d="m97.667 278.904-22.708 2.782c-3.389.416-6.516 2.215-8.579 4.937-2.078 2.742-2.938 6.119-2.42 9.507 2.076 13.584 10.101 23.11 23.205 27.547 1.348.456 2.72.673 4.069.673 5.065 0 9.82-3.059 11.783-8.025l7.979-20.179c1.661-4.2 1.004-8.84-1.758-12.414-2.762-3.571-7.088-5.374-11.571-4.828zm-7.756 29.775c-5.717-2.465-9.157-6.475-10.644-12.409l16.341-2.002z"/></g></svg>